<svg width="24" height="22" viewBox="0 0 24 22" fill="none" xmlns="http://www.w3.org/2000/svg">
<path d="M23.9186 9.79969C23.8012 9.66833 23.5999 9.65847 23.4695 9.77552L22.8454 10.3356L19.4612 6.98007C19.3366 6.85666 19.1355 6.85698 19.0115 6.98198C18.8878 7.10666 18.8884 7.30799 19.0134 7.43172L22.3715 10.7612L20.709 12.2532L15.1798 6.65279L20.6759 1.45343C20.8035 1.33256 20.8092 1.13123 20.6883 1.00369C20.5671 0.875827 20.3661 0.871056 20.2386 0.990965L14.5065 6.41392C14.4444 6.47276 14.4085 6.55387 14.4069 6.63943C14.4053 6.72499 14.4387 6.80736 14.4985 6.86843L15.0077 7.38433L13.8859 8.55798L11.7222 8.32738C11.6264 8.31593 11.5326 8.35028 11.4645 8.41771L10.5851 9.28952L8.95025 7.67472L9.50113 7.11684C9.56093 7.05609 9.59432 6.97339 9.59273 6.88783C9.59114 6.80228 9.55552 6.72117 9.49318 6.66233L3.76139 1.23969C3.63416 1.11946 3.43251 1.12423 3.31165 1.25241C3.19078 1.37996 3.19651 1.58129 3.32405 1.70215L7.192 5.36082L1.52764 10.919L0.530512 10.0242C0.400107 9.9072 0.198774 9.91769 0.081409 10.0484C-0.0359559 10.1791 -0.0251418 10.3802 0.105582 10.4975L3.09187 13.1778C3.1523 13.2322 3.22863 13.2593 3.30433 13.2593C3.38671 13.2593 3.46877 13.2274 3.53079 13.1648L4.07181 12.6168L7.04601 15.5503L6.49958 16.1059C6.37713 16.2306 6.37776 16.4303 6.50149 16.5537L7.61661 17.6689C7.61661 17.6689 7.61725 17.6692 7.61725 17.6695C7.61725 17.6698 7.61757 17.6701 7.61789 17.6701L8.73333 18.7729L9.84718 19.887L10.9623 21.0022C11.0243 21.0642 11.1058 21.0953 11.1872 21.0953C11.2686 21.0953 11.35 21.0642 11.412 21.0022L11.989 20.4252L12.5755 21.0037C12.6372 21.0648 12.718 21.0953 12.7988 21.0953C12.8802 21.0953 12.9616 21.0642 13.0237 21.0022L13.9139 20.1119L14.0453 20.2433C14.1073 20.3053 14.1887 20.3364 14.2702 20.3364C14.3516 20.3364 14.433 20.3053 14.495 20.2433L15.3853 19.353L15.5166 19.4844C15.5787 19.5464 15.6601 19.5776 15.7415 19.5776C15.8229 19.5776 15.9044 19.5464 15.9664 19.4844L16.8566 18.5941L16.9877 18.7251C17.0497 18.7872 17.1311 18.8183 17.2125 18.8183C17.294 18.8183 17.3754 18.7872 17.4374 18.7251L18.5525 17.61C18.6769 17.4857 18.6769 17.2846 18.5525 17.1603L16.8967 15.5044L19.8894 12.3292L20.4695 12.917C20.5315 12.98 20.6136 13.0115 20.696 13.0115C20.7717 13.0115 20.848 12.9844 20.9084 12.9301L23.8947 10.2497C24.0251 10.1314 24.0359 9.93041 23.9186 9.79969ZM7.83226 9.97685C7.83226 10.7443 7.2079 11.3684 6.44074 11.3684C6.1354 11.3684 5.84215 11.2679 5.60296 11.0872L7.55109 9.13876C7.73175 9.37826 7.83226 9.67151 7.83226 9.97685ZM8.0021 8.68775L8.53295 8.1569L8.81984 8.44029L8.23524 9.03889C8.17036 8.91452 8.09243 8.79684 8.0021 8.68775ZM3.29097 12.5016L2.00187 11.3445L7.65446 5.79815L8.82048 6.90119L3.29097 12.5016ZM5.15195 11.5382C5.26455 11.6314 5.38605 11.7112 5.51518 11.7777C5.41435 11.8814 5.31035 11.9892 5.2057 12.0974C5.07912 12.2281 4.95571 12.355 4.83643 12.4775L4.52251 12.168L5.15195 11.5382ZM7.49893 15.9965L8.1675 16.6558L7.83894 16.9914L7.17419 16.3266L7.49893 15.9965ZM8.95534 18.0979L8.2909 17.4411L8.62264 17.1049L9.28994 17.763L8.95534 18.0979ZM9.74286 18.2099L10.4127 18.8705L10.0714 19.2118L9.40603 18.5464L9.74286 18.2099ZM11.1869 20.3269L10.5215 19.6615L10.8659 19.3171L11.5358 19.978L11.1869 20.3269ZM17.2122 18.0496L17.0812 17.9185L15.7972 16.6345C15.7972 16.6345 15.7968 16.6345 15.7968 16.6342L15.4066 16.2439C15.2822 16.1196 15.0812 16.1196 14.9568 16.2439C14.8325 16.3683 14.8325 16.5693 14.9568 16.6937L16.4069 18.1434L15.7415 18.8088L13.9355 17.0028C13.8112 16.8785 13.6102 16.8785 13.4858 17.0028C13.3614 17.1272 13.3614 17.3282 13.4858 17.4526L13.8767 17.8435L14.9355 18.9026L14.2702 19.568L13.226 18.5241L12.8548 18.153C12.8548 18.153 12.8545 18.153 12.8545 18.1526L12.4642 17.7624C12.3398 17.638 12.1388 17.638 12.0145 17.7624C11.8901 17.8867 11.8901 18.0877 12.0145 18.2121L12.7444 18.9421L13.4642 19.6618L12.7972 20.3288L5.28935 12.924C5.4099 12.8003 5.5349 12.6715 5.66244 12.5395C5.84978 12.3461 6.03426 12.1556 6.19838 11.9889C6.27853 11.9985 6.359 12.0045 6.44074 12.0045C7.55904 12.0045 8.46838 11.0948 8.46838 9.97685C8.46838 9.8932 8.46202 9.8105 8.45184 9.72844L9.27276 8.88749L10.1338 9.73767L7.13125 12.715C7.06668 12.779 7.03265 12.8674 7.03774 12.9584C7.04283 13.0493 7.08609 13.1333 7.15733 13.1899C7.23144 13.2494 8.97315 14.5684 11.9973 11.5035L17.8776 17.3842L17.2122 18.0496ZM16.4463 15.0538L12.2177 10.8248C12.1569 10.7641 12.0816 10.7303 11.9877 10.7316C11.9015 10.7329 11.8201 10.7691 11.761 10.8318C9.80997 12.9078 8.50305 12.9708 7.91368 12.8346L11.8049 8.97591L13.3306 9.13844L13.1016 9.37826C12.9801 9.50517 12.9849 9.7065 13.1115 9.828C13.2384 9.94918 13.4394 9.94505 13.5612 9.81782L15.3894 7.90531L19.4018 11.9177L16.4463 15.0538ZM17.0026 5.92252C17.0026 6.47054 17.4485 6.91646 17.9966 6.91646C18.5446 6.91646 18.9905 6.47054 18.9905 5.92252C18.9905 5.3745 18.5446 4.92857 17.9966 4.92857C17.4485 4.92857 17.0026 5.3745 17.0026 5.92252ZM18.3544 5.92252C18.3544 6.11971 18.1938 6.28034 17.9966 6.28034C17.7994 6.28034 17.6387 6.11971 17.6387 5.92252C17.6387 5.72532 17.7994 5.5647 17.9966 5.5647C18.1938 5.5647 18.3544 5.72532 18.3544 5.92252Z" fill="black"/>
</svg>
