<svg width="18" height="18" viewBox="0 0 18 18" fill="none" xmlns="http://www.w3.org/2000/svg">
<path fill-rule="evenodd" clip-rule="evenodd" d="M15.3786 0.00292969H2.62156C1.59131 0.00292969 0.753418 0.699192 0.753418 1.55529V16.4451C0.753418 17.3012 1.59131 17.9974 2.62156 17.9974H15.3786C16.4088 17.9974 17.2467 17.3012 17.2467 16.4451V1.55529C17.2467 0.699192 16.4088 0.00292969 15.3786 0.00292969ZM16.5659 16.4451C16.5659 16.9938 16.0332 17.4404 15.3786 17.4404H2.62156C1.96696 17.4404 1.43421 16.9938 1.43421 16.4451V1.55529C1.43421 1.00654 1.96696 0.559945 2.62156 0.559945H15.3786C16.0332 0.559945 16.5659 1.00654 16.5659 1.55529V16.4451Z" fill="black"/>
<path fill-rule="evenodd" clip-rule="evenodd" d="M13.8127 4.78516H8.31267C8.12536 4.78516 7.97363 4.9093 7.97363 5.06255C7.97363 5.21583 8.12536 5.33998 8.31267 5.33998H13.8127C14 5.33998 14.1517 5.21583 14.1517 5.06255C14.1517 4.9093 14 4.78516 13.8127 4.78516Z" fill="black"/>
<path fill-rule="evenodd" clip-rule="evenodd" d="M13.8127 8.72266H8.31267C8.12536 8.72266 7.97363 8.8468 7.97363 9.00005C7.97363 9.15333 8.12536 9.27748 8.31267 9.27748H13.8127C14 9.27748 14.1517 9.15333 14.1517 9.00005C14.1517 8.8468 14 8.72266 13.8127 8.72266Z" fill="black"/>
<path fill-rule="evenodd" clip-rule="evenodd" d="M13.8127 12.6602H8.31267C8.12536 12.6602 7.97363 12.7843 7.97363 12.9376C7.97363 13.0908 8.12536 13.215 8.31267 13.215H13.8127C14 13.215 14.1517 13.0908 14.1517 12.9376C14.1517 12.7843 14 12.6602 13.8127 12.6602Z" fill="black"/>
<path d="M4.87498 5.90622C5.44452 5.90622 5.90622 5.52847 5.90622 5.06249C5.90622 4.5965 5.44452 4.21875 4.87498 4.21875C4.30545 4.21875 3.84375 4.5965 3.84375 5.06249C3.84375 5.52847 4.30545 5.90622 4.87498 5.90622Z" fill="black"/>
<path d="M4.875 9.84375C5.44454 9.84375 5.90625 9.46599 5.90625 9C5.90625 8.53401 5.44454 8.15625 4.875 8.15625C4.30546 8.15625 3.84375 8.53401 3.84375 9C3.84375 9.46599 4.30546 9.84375 4.875 9.84375Z" fill="black"/>
<path d="M4.875 13.7812C5.44454 13.7812 5.90625 13.4035 5.90625 12.9375C5.90625 12.4715 5.44454 12.0938 4.875 12.0938C4.30546 12.0938 3.84375 12.4715 3.84375 12.9375C3.84375 13.4035 4.30546 13.7812 4.875 13.7812Z" fill="black"/>
</svg>
