<svg width="21" height="21" viewBox="0 0 21 21" fill="none" xmlns="http://www.w3.org/2000/svg">
<path d="M15.749 0C16.3457 0 16.918 0.237053 17.34 0.65901C17.7619 1.08097 17.999 1.65326 17.999 2.25V17.75C17.999 18.3467 17.7619 18.919 17.34 19.341C16.918 19.7629 16.3457 20 15.749 20H10.19C10.617 19.556 10.98 19.051 11.268 18.5H15.748C15.9469 18.5 16.1377 18.421 16.2783 18.2803C16.419 18.1397 16.498 17.9489 16.498 17.75V2.25C16.498 2.05109 16.419 1.86032 16.2783 1.71967C16.1377 1.57902 15.9469 1.5 15.748 1.5H5.25C5.05109 1.5 4.86032 1.57902 4.71967 1.71967C4.57902 1.86032 4.5 2.05109 4.5 2.25V9.076C3.98479 9.15554 3.48111 9.29724 3 9.498V2.25C3 1.65326 3.23705 1.08097 3.65901 0.65901C4.08097 0.237053 4.65326 0 5.25 0H15.749ZM19 13.002H19.75C19.9312 13.002 20.1063 13.0676 20.2429 13.1868C20.3795 13.3059 20.4684 13.4704 20.493 13.65L20.5 13.752V15.25C20.5 15.4312 20.4344 15.6063 20.3152 15.7429C20.1961 15.8795 20.0316 15.9684 19.852 15.993L19.75 16H19V13.002ZM19 9.002H19.75C19.9312 9.00201 20.1063 9.06764 20.2429 9.18677C20.3795 9.30589 20.4684 9.47045 20.493 9.65L20.5 9.752V11.25C20.5 11.4312 20.4344 11.6063 20.3152 11.7429C20.1961 11.8795 20.0316 11.9684 19.852 11.993L19.75 12H19V9.002ZM19 5.002H19.75C19.9312 5.00201 20.1063 5.06764 20.2429 5.18677C20.3795 5.30589 20.4684 5.47045 20.493 5.65L20.5 5.752V7.25C20.5 7.43124 20.4344 7.60634 20.3152 7.74293C20.1961 7.87952 20.0316 7.96835 19.852 7.993L19.75 8H19V5.002ZM14.249 3C14.4479 3 14.6387 3.07902 14.7793 3.21967C14.92 3.36032 14.999 3.55109 14.999 3.75V6.248C14.999 6.44691 14.92 6.63768 14.7793 6.77833C14.6387 6.91898 14.4479 6.998 14.249 6.998H6.75C6.55109 6.998 6.36032 6.91898 6.21967 6.77833C6.07902 6.63768 6 6.44691 6 6.248V3.75C6 3.55109 6.07902 3.36032 6.21967 3.21967C6.36032 3.07902 6.55109 3 6.75 3H14.249ZM13.499 4.5H7.5V5.498H13.499V4.5ZM11 15.5C11 14.7777 10.8577 14.0625 10.5813 13.3952C10.3049 12.728 9.89981 12.1216 9.38909 11.6109C8.87837 11.1002 8.27205 10.6951 7.60476 10.4187C6.93747 10.1423 6.22227 10 5.5 10C4.77773 10 4.06253 10.1423 3.39524 10.4187C2.72795 10.6951 2.12163 11.1002 1.61091 11.6109C1.10019 12.1216 0.695063 12.728 0.418663 13.3952C0.142262 14.0625 -1.07627e-08 14.7777 0 15.5C2.17362e-08 16.9587 0.579463 18.3576 1.61091 19.3891C2.64236 20.4205 4.04131 21 5.5 21C6.95869 21 8.35764 20.4205 9.38909 19.3891C10.4205 18.3576 11 16.9587 11 15.5ZM6 16L6.001 18.503C6.001 18.6356 5.94832 18.7628 5.85455 18.8566C5.76079 18.9503 5.63361 19.003 5.501 19.003C5.36839 19.003 5.24121 18.9503 5.14745 18.8566C5.05368 18.7628 5.001 18.6356 5.001 18.503V16H2.496C2.36339 16 2.23621 15.9473 2.14245 15.8536C2.04868 15.7598 1.996 15.6326 1.996 15.5C1.996 15.3674 2.04868 15.2402 2.14245 15.1464C2.23621 15.0527 2.36339 15 2.496 15H5V12.5C5 12.3674 5.05268 12.2402 5.14645 12.1464C5.24021 12.0527 5.36739 12 5.5 12C5.63261 12 5.75979 12.0527 5.85355 12.1464C5.94732 12.2402 6 12.3674 6 12.5V15H8.497C8.62961 15 8.75679 15.0527 8.85055 15.1464C8.94432 15.2402 8.997 15.3674 8.997 15.5C8.997 15.6326 8.94432 15.7598 8.85055 15.8536C8.75679 15.9473 8.62961 16 8.497 16H6Z" fill="black"/>
</svg>
