<svg width="20" height="21" viewBox="0 0 20 21" fill="none" xmlns="http://www.w3.org/2000/svg">
<path d="M1.19523 16.3983H8.74525V18.3105H7.52994C7.39799 18.3105 7.29089 18.4402 7.29089 18.5974V20.4143C7.29089 20.5721 7.39799 20.7012 7.52994 20.7012H12.4701C12.6011 20.7012 12.7091 20.5721 12.7091 20.4143V18.5974C12.7091 18.4402 12.6011 18.3105 12.4701 18.3105H11.2552V16.3983H18.8048C19.4641 16.3983 20 15.7546 20 14.9641V1.43427C20 0.643702 19.4641 0 18.8048 0H1.19523C0.536419 0 0 0.643702 0 1.43427V14.9641C0 15.7546 0.536419 16.3983 1.19523 16.3983ZM7.76899 20.1275V19.793H12.231V20.1275H7.76899ZM12.231 19.2193H7.76899V18.8848H8.98429H11.0162H12.232L12.231 19.2193ZM10.7771 18.3111H9.22334V16.3989H10.7771V18.3111ZM18.8048 15.8246H11.0162H8.98429H1.19523C0.799847 15.8246 0.478091 15.4385 0.478091 14.9641V13.9601H19.5219V14.9641C19.5219 15.4391 19.1997 15.8246 18.8048 15.8246ZM1.19523 0.57371H18.8048C19.1997 0.57371 19.5219 0.959816 19.5219 1.43427V13.3864H0.478091V1.43427C0.478091 0.959243 0.799847 0.57371 1.19523 0.57371Z" fill="black"/>
<path d="M3.66556 12.7653C3.73154 12.7653 3.79752 12.7315 3.84485 12.6683L7.02033 8.35864L8.67309 10.4068C8.67453 10.4091 8.67596 10.4091 8.6774 10.4102C8.67883 10.4125 8.67931 10.4148 8.68026 10.416C8.69509 10.4326 8.71277 10.4429 8.72951 10.4527C8.73859 10.4596 8.74624 10.4676 8.7558 10.4728C8.78449 10.486 8.81461 10.494 8.84521 10.494C8.8758 10.494 8.9064 10.486 8.93557 10.4722C8.94513 10.4676 8.95278 10.4584 8.96234 10.4515C8.97907 10.4395 8.99676 10.4303 9.01158 10.4137C9.01302 10.4125 9.01302 10.4102 9.01445 10.4079C9.01588 10.4068 9.01732 10.4068 9.01875 10.4045L11.524 7.23818L13.4765 8.45388C13.4803 8.45617 13.4856 8.4556 13.4884 8.45732C13.519 8.47453 13.553 8.486 13.5864 8.486C13.6247 8.486 13.662 8.47166 13.6964 8.44929C13.7064 8.4424 13.715 8.4315 13.7265 8.42232C13.7404 8.4097 13.7566 8.40052 13.7686 8.38388L17.0359 3.72249C17.1214 3.60144 17.1066 3.42014 17.0058 3.31802C16.9049 3.21648 16.7557 3.23197 16.6697 3.35302L13.5267 7.83828L11.5837 6.6289C11.5789 6.62604 11.5742 6.62661 11.5722 6.62431C11.5565 6.61571 11.5412 6.61169 11.5225 6.60768C11.5096 6.60423 11.4948 6.59964 11.4814 6.59907C11.4666 6.5985 11.4513 6.60251 11.435 6.60538C11.4207 6.60825 11.4049 6.61055 11.3896 6.61743C11.3772 6.62317 11.3643 6.63292 11.3538 6.64153C11.3389 6.65185 11.3236 6.66218 11.3117 6.67652C11.3074 6.68054 11.3026 6.68169 11.3012 6.68628L8.84329 9.79234L7.18432 7.73674C7.18193 7.73387 7.17858 7.73272 7.17619 7.73043C7.1738 7.72756 7.17284 7.72412 7.17045 7.72182C7.16089 7.71149 7.14894 7.70748 7.13842 7.69945C7.12455 7.68855 7.11165 7.67707 7.09635 7.67019C7.082 7.66388 7.06766 7.66216 7.05284 7.65929C7.03754 7.65642 7.0232 7.65183 7.00742 7.65183C6.99164 7.6524 6.97635 7.65757 6.96105 7.66158C6.9467 7.6656 6.93284 7.66732 6.91898 7.67478C6.90415 7.68224 6.89172 7.69486 6.87786 7.70576C6.86734 7.71436 6.85539 7.71895 6.84583 7.72985C6.84344 7.73272 6.84248 7.73674 6.84057 7.73961C6.83818 7.74247 6.83531 7.74362 6.8334 7.74649L3.48676 12.2886C3.39879 12.4067 3.40787 12.5869 3.50684 12.6936C3.55321 12.7412 3.60915 12.7653 3.66556 12.7653Z" fill="black"/>
</svg>
